<mxfile modified="2022-05-04T03:50:14.887Z" host="app.diagrams.net" agent="5.0 (Windows NT 10.0; Win64; x64) AppleWebKit/537.36 (KHTML, like Gecko) Chrome/100.0.4896.127 Safari/537.36 Edg/100.0.1185.50" etag="Rq1hASpWCrg2YPkdUl-X" compressed="false" version="17.5.0" type="google">
  <diagram id="MIqzon-ue2Klf6g-bHF1" name="Functionality/Organisation/Components">
    <mxGraphModel grid="1" page="1" gridSize="10" guides="1" tooltips="1" connect="1" arrows="1" fold="1" pageScale="1" pageWidth="827" pageHeight="1169" math="0" shadow="0">
      <root>
        <mxCell id="2szxPETJ1rB6XnNZ_MYP-0" />
        <mxCell id="2szxPETJ1rB6XnNZ_MYP-1" parent="2szxPETJ1rB6XnNZ_MYP-0" />
        <mxCell id="1T7zoIFA7ivuHsBTDsDi-0" value="Logical Mdoule" style="rounded=0;whiteSpace=wrap;html=1;strokeWidth=1;gradientColor=none;align=left;verticalAlign=top;dashed=1;container=1;collapsible=0;fontColor=#999999;strokeColor=#999999;" vertex="1" parent="2szxPETJ1rB6XnNZ_MYP-1">
          <mxGeometry x="160" y="210" width="320" height="160" as="geometry" />
        </mxCell>
        <mxCell id="1T7zoIFA7ivuHsBTDsDi-1" value="Application Services" style="rounded=0;whiteSpace=wrap;html=1;strokeColor=#6c8ebf;strokeWidth=3;fillColor=#dae8fc;align=center;" vertex="1" parent="1T7zoIFA7ivuHsBTDsDi-0">
          <mxGeometry x="120" y="40" width="80" height="40" as="geometry" />
        </mxCell>
        <mxCell id="1T7zoIFA7ivuHsBTDsDi-2" value="Infrastructure&lt;br&gt;Services" style="rounded=0;whiteSpace=wrap;html=1;strokeWidth=1;fillColor=none;gradientColor=none;align=center;strokeColor=#666666;fontColor=#666666;" vertex="1" parent="1T7zoIFA7ivuHsBTDsDi-0">
          <mxGeometry x="20" y="100" width="80" height="40" as="geometry" />
        </mxCell>
        <mxCell id="1T7zoIFA7ivuHsBTDsDi-3" style="edgeStyle=none;rounded=1;orthogonalLoop=1;jettySize=auto;html=1;entryX=0.5;entryY=0;entryDx=0;entryDy=0;startArrow=none;startFill=0;endArrow=none;endFill=0;strokeWidth=1;" edge="1" parent="1T7zoIFA7ivuHsBTDsDi-0" source="1T7zoIFA7ivuHsBTDsDi-1" target="1T7zoIFA7ivuHsBTDsDi-2">
          <mxGeometry relative="1" as="geometry" />
        </mxCell>
        <mxCell id="1T7zoIFA7ivuHsBTDsDi-4" value="Domain Specific Services" style="rounded=0;whiteSpace=wrap;html=1;strokeWidth=1;fillColor=none;gradientColor=none;align=center;strokeColor=#666666;fontColor=#666666;" vertex="1" parent="1T7zoIFA7ivuHsBTDsDi-0">
          <mxGeometry x="220" y="100" width="80" height="40" as="geometry" />
        </mxCell>
        <mxCell id="1T7zoIFA7ivuHsBTDsDi-5" style="edgeStyle=none;rounded=1;orthogonalLoop=1;jettySize=auto;html=1;entryX=0.5;entryY=0;entryDx=0;entryDy=0;startArrow=none;startFill=0;endArrow=none;endFill=0;strokeWidth=1;" edge="1" parent="1T7zoIFA7ivuHsBTDsDi-0" source="1T7zoIFA7ivuHsBTDsDi-1" target="1T7zoIFA7ivuHsBTDsDi-4">
          <mxGeometry relative="1" as="geometry" />
        </mxCell>
        <mxCell id="1T7zoIFA7ivuHsBTDsDi-6" value="" style="endArrow=none;html=1;strokeWidth=1;exitX=0.5;exitY=1;exitDx=0;exitDy=0;entryX=0.5;entryY=0;entryDx=0;entryDy=0;" edge="1" parent="1T7zoIFA7ivuHsBTDsDi-0" source="1T7zoIFA7ivuHsBTDsDi-10" target="1T7zoIFA7ivuHsBTDsDi-1">
          <mxGeometry width="50" height="50" relative="1" as="geometry">
            <mxPoint x="370" y="60" as="sourcePoint" />
            <mxPoint x="420" y="10" as="targetPoint" />
          </mxGeometry>
        </mxCell>
        <mxCell id="1T7zoIFA7ivuHsBTDsDi-7" value="Shared Entity &amp;amp; Msg Models" style="rounded=0;whiteSpace=wrap;html=1;strokeWidth=1;fillColor=none;gradientColor=none;align=center;strokeColor=#666666;fontColor=#666666;" vertex="1" parent="1T7zoIFA7ivuHsBTDsDi-0">
          <mxGeometry x="120" y="100" width="80" height="40" as="geometry" />
        </mxCell>
        <mxCell id="1T7zoIFA7ivuHsBTDsDi-8" style="edgeStyle=none;rounded=1;orthogonalLoop=1;jettySize=auto;html=1;entryX=0;entryY=0.5;entryDx=0;entryDy=0;startArrow=none;startFill=0;endArrow=none;endFill=0;strokeWidth=1;" edge="1" parent="1T7zoIFA7ivuHsBTDsDi-0" source="1T7zoIFA7ivuHsBTDsDi-2" target="1T7zoIFA7ivuHsBTDsDi-7">
          <mxGeometry relative="1" as="geometry" />
        </mxCell>
        <mxCell id="1T7zoIFA7ivuHsBTDsDi-9" style="edgeStyle=none;rounded=1;orthogonalLoop=1;jettySize=auto;html=1;entryX=1;entryY=0.5;entryDx=0;entryDy=0;startArrow=none;startFill=0;endArrow=none;endFill=0;strokeWidth=1;" edge="1" parent="1T7zoIFA7ivuHsBTDsDi-0" source="1T7zoIFA7ivuHsBTDsDi-4" target="1T7zoIFA7ivuHsBTDsDi-7">
          <mxGeometry relative="1" as="geometry" />
        </mxCell>
        <mxCell id="1T7zoIFA7ivuHsBTDsDi-10" value="API Service Facade" style="rounded=0;whiteSpace=wrap;html=1;strokeWidth=3;align=center;fontColor=#999999;strokeColor=#A9C4EB;" vertex="1" parent="1T7zoIFA7ivuHsBTDsDi-0">
          <mxGeometry x="120" y="-20" width="80" height="40" as="geometry" />
        </mxCell>
        <mxCell id="1T7zoIFA7ivuHsBTDsDi-11" value="Logical Mdoule" style="rounded=0;whiteSpace=wrap;html=1;strokeWidth=1;gradientColor=none;align=left;verticalAlign=top;dashed=1;container=1;collapsible=0;fontColor=#999999;strokeColor=#999999;" vertex="1" parent="2szxPETJ1rB6XnNZ_MYP-1">
          <mxGeometry x="140" y="230" width="320" height="160" as="geometry" />
        </mxCell>
        <mxCell id="1T7zoIFA7ivuHsBTDsDi-12" value="Application Services" style="rounded=0;whiteSpace=wrap;html=1;strokeColor=#6c8ebf;strokeWidth=3;fillColor=#dae8fc;align=center;" vertex="1" parent="1T7zoIFA7ivuHsBTDsDi-11">
          <mxGeometry x="120" y="40" width="80" height="40" as="geometry" />
        </mxCell>
        <mxCell id="1T7zoIFA7ivuHsBTDsDi-13" value="Infrastructure&lt;br&gt;Services" style="rounded=0;whiteSpace=wrap;html=1;strokeWidth=1;fillColor=none;gradientColor=none;align=center;strokeColor=#666666;fontColor=#666666;" vertex="1" parent="1T7zoIFA7ivuHsBTDsDi-11">
          <mxGeometry x="20" y="100" width="80" height="40" as="geometry" />
        </mxCell>
        <mxCell id="1T7zoIFA7ivuHsBTDsDi-14" style="edgeStyle=none;rounded=1;orthogonalLoop=1;jettySize=auto;html=1;entryX=0.5;entryY=0;entryDx=0;entryDy=0;startArrow=none;startFill=0;endArrow=none;endFill=0;strokeWidth=1;" edge="1" parent="1T7zoIFA7ivuHsBTDsDi-11" source="1T7zoIFA7ivuHsBTDsDi-12" target="1T7zoIFA7ivuHsBTDsDi-13">
          <mxGeometry relative="1" as="geometry" />
        </mxCell>
        <mxCell id="1T7zoIFA7ivuHsBTDsDi-15" value="Domain Specific Services" style="rounded=0;whiteSpace=wrap;html=1;strokeWidth=1;fillColor=none;gradientColor=none;align=center;strokeColor=#666666;fontColor=#666666;" vertex="1" parent="1T7zoIFA7ivuHsBTDsDi-11">
          <mxGeometry x="220" y="100" width="80" height="40" as="geometry" />
        </mxCell>
        <mxCell id="1T7zoIFA7ivuHsBTDsDi-16" style="edgeStyle=none;rounded=1;orthogonalLoop=1;jettySize=auto;html=1;entryX=0.5;entryY=0;entryDx=0;entryDy=0;startArrow=none;startFill=0;endArrow=none;endFill=0;strokeWidth=1;" edge="1" parent="1T7zoIFA7ivuHsBTDsDi-11" source="1T7zoIFA7ivuHsBTDsDi-12" target="1T7zoIFA7ivuHsBTDsDi-15">
          <mxGeometry relative="1" as="geometry" />
        </mxCell>
        <mxCell id="1T7zoIFA7ivuHsBTDsDi-17" value="" style="endArrow=none;html=1;strokeWidth=1;exitX=0.5;exitY=1;exitDx=0;exitDy=0;entryX=0.5;entryY=0;entryDx=0;entryDy=0;" edge="1" parent="1T7zoIFA7ivuHsBTDsDi-11" source="1T7zoIFA7ivuHsBTDsDi-21" target="1T7zoIFA7ivuHsBTDsDi-12">
          <mxGeometry width="50" height="50" relative="1" as="geometry">
            <mxPoint x="370" y="60" as="sourcePoint" />
            <mxPoint x="420" y="10" as="targetPoint" />
          </mxGeometry>
        </mxCell>
        <mxCell id="1T7zoIFA7ivuHsBTDsDi-18" value="Shared Entity &amp;amp; Msg Models" style="rounded=0;whiteSpace=wrap;html=1;strokeWidth=1;fillColor=none;gradientColor=none;align=center;strokeColor=#666666;fontColor=#666666;" vertex="1" parent="1T7zoIFA7ivuHsBTDsDi-11">
          <mxGeometry x="120" y="100" width="80" height="40" as="geometry" />
        </mxCell>
        <mxCell id="1T7zoIFA7ivuHsBTDsDi-19" style="edgeStyle=none;rounded=1;orthogonalLoop=1;jettySize=auto;html=1;entryX=0;entryY=0.5;entryDx=0;entryDy=0;startArrow=none;startFill=0;endArrow=none;endFill=0;strokeWidth=1;" edge="1" parent="1T7zoIFA7ivuHsBTDsDi-11" source="1T7zoIFA7ivuHsBTDsDi-13" target="1T7zoIFA7ivuHsBTDsDi-18">
          <mxGeometry relative="1" as="geometry" />
        </mxCell>
        <mxCell id="1T7zoIFA7ivuHsBTDsDi-20" style="edgeStyle=none;rounded=1;orthogonalLoop=1;jettySize=auto;html=1;entryX=1;entryY=0.5;entryDx=0;entryDy=0;startArrow=none;startFill=0;endArrow=none;endFill=0;strokeWidth=1;" edge="1" parent="1T7zoIFA7ivuHsBTDsDi-11" source="1T7zoIFA7ivuHsBTDsDi-15" target="1T7zoIFA7ivuHsBTDsDi-18">
          <mxGeometry relative="1" as="geometry" />
        </mxCell>
        <mxCell id="1T7zoIFA7ivuHsBTDsDi-21" value="API Service Facade" style="rounded=0;whiteSpace=wrap;html=1;strokeWidth=3;align=center;fontColor=#999999;strokeColor=#A9C4EB;" vertex="1" parent="1T7zoIFA7ivuHsBTDsDi-11">
          <mxGeometry x="120" y="-20" width="80" height="40" as="geometry" />
        </mxCell>
        <mxCell id="1T7zoIFA7ivuHsBTDsDi-22" value="Logical Mdoule" style="rounded=0;whiteSpace=wrap;html=1;strokeColor=#000000;strokeWidth=1;gradientColor=none;align=left;verticalAlign=top;dashed=1;container=1;collapsible=0;" vertex="1" parent="2szxPETJ1rB6XnNZ_MYP-1">
          <mxGeometry x="120" y="250" width="320" height="160" as="geometry" />
        </mxCell>
        <mxCell id="1T7zoIFA7ivuHsBTDsDi-23" value="Application Services" style="rounded=0;whiteSpace=wrap;html=1;strokeColor=#6c8ebf;strokeWidth=3;fillColor=#dae8fc;align=center;" vertex="1" parent="1T7zoIFA7ivuHsBTDsDi-22">
          <mxGeometry x="120" y="40" width="80" height="40" as="geometry" />
        </mxCell>
        <mxCell id="1T7zoIFA7ivuHsBTDsDi-24" value="Infrastructure&lt;br&gt;Services" style="rounded=0;whiteSpace=wrap;html=1;strokeWidth=1;fillColor=none;gradientColor=none;align=center;strokeColor=#666666;fontColor=#666666;" vertex="1" parent="1T7zoIFA7ivuHsBTDsDi-22">
          <mxGeometry x="20" y="100" width="80" height="40" as="geometry" />
        </mxCell>
        <mxCell id="1T7zoIFA7ivuHsBTDsDi-25" style="edgeStyle=none;rounded=1;orthogonalLoop=1;jettySize=auto;html=1;entryX=0.5;entryY=0;entryDx=0;entryDy=0;startArrow=none;startFill=0;endArrow=none;endFill=0;strokeWidth=1;" edge="1" parent="1T7zoIFA7ivuHsBTDsDi-22" source="1T7zoIFA7ivuHsBTDsDi-23" target="1T7zoIFA7ivuHsBTDsDi-24">
          <mxGeometry relative="1" as="geometry" />
        </mxCell>
        <mxCell id="1T7zoIFA7ivuHsBTDsDi-26" value="Domain Specific Services" style="rounded=0;whiteSpace=wrap;html=1;strokeWidth=1;fillColor=none;gradientColor=none;align=center;strokeColor=#666666;fontColor=#666666;" vertex="1" parent="1T7zoIFA7ivuHsBTDsDi-22">
          <mxGeometry x="220" y="100" width="80" height="40" as="geometry" />
        </mxCell>
        <mxCell id="1T7zoIFA7ivuHsBTDsDi-27" style="edgeStyle=none;rounded=1;orthogonalLoop=1;jettySize=auto;html=1;entryX=0.5;entryY=0;entryDx=0;entryDy=0;startArrow=none;startFill=0;endArrow=none;endFill=0;strokeWidth=1;" edge="1" parent="1T7zoIFA7ivuHsBTDsDi-22" source="1T7zoIFA7ivuHsBTDsDi-23" target="1T7zoIFA7ivuHsBTDsDi-26">
          <mxGeometry relative="1" as="geometry" />
        </mxCell>
        <mxCell id="1T7zoIFA7ivuHsBTDsDi-28" value="" style="endArrow=none;html=1;strokeWidth=1;exitX=0.5;exitY=1;exitDx=0;exitDy=0;entryX=0.5;entryY=0;entryDx=0;entryDy=0;" edge="1" parent="1T7zoIFA7ivuHsBTDsDi-22" source="1T7zoIFA7ivuHsBTDsDi-32" target="1T7zoIFA7ivuHsBTDsDi-23">
          <mxGeometry width="50" height="50" relative="1" as="geometry">
            <mxPoint x="370" y="60" as="sourcePoint" />
            <mxPoint x="420" y="10" as="targetPoint" />
          </mxGeometry>
        </mxCell>
        <mxCell id="1T7zoIFA7ivuHsBTDsDi-29" value="Shared Entity &amp;amp; Msg Models" style="rounded=0;whiteSpace=wrap;html=1;strokeWidth=1;fillColor=none;gradientColor=none;align=center;strokeColor=#666666;fontColor=#666666;" vertex="1" parent="1T7zoIFA7ivuHsBTDsDi-22">
          <mxGeometry x="120" y="100" width="80" height="40" as="geometry" />
        </mxCell>
        <mxCell id="1T7zoIFA7ivuHsBTDsDi-30" style="edgeStyle=none;rounded=1;orthogonalLoop=1;jettySize=auto;html=1;entryX=0;entryY=0.5;entryDx=0;entryDy=0;startArrow=none;startFill=0;endArrow=none;endFill=0;strokeWidth=1;" edge="1" parent="1T7zoIFA7ivuHsBTDsDi-22" source="1T7zoIFA7ivuHsBTDsDi-24" target="1T7zoIFA7ivuHsBTDsDi-29">
          <mxGeometry relative="1" as="geometry" />
        </mxCell>
        <mxCell id="1T7zoIFA7ivuHsBTDsDi-31" style="edgeStyle=none;rounded=1;orthogonalLoop=1;jettySize=auto;html=1;entryX=1;entryY=0.5;entryDx=0;entryDy=0;startArrow=none;startFill=0;endArrow=none;endFill=0;strokeWidth=1;" edge="1" parent="1T7zoIFA7ivuHsBTDsDi-22" source="1T7zoIFA7ivuHsBTDsDi-26" target="1T7zoIFA7ivuHsBTDsDi-29">
          <mxGeometry relative="1" as="geometry" />
        </mxCell>
        <mxCell id="1T7zoIFA7ivuHsBTDsDi-32" value="API Service Facade" style="rounded=0;whiteSpace=wrap;html=1;strokeColor=#6c8ebf;strokeWidth=3;align=center;" vertex="1" parent="1T7zoIFA7ivuHsBTDsDi-22">
          <mxGeometry x="120" y="-20" width="80" height="40" as="geometry" />
        </mxCell>
        <mxCell id="1T7zoIFA7ivuHsBTDsDi-33" value="&lt;font style=&quot;font-size: 12px&quot;&gt;Diagram: Base System Logical Module -&amp;nbsp;Functionality -&amp;nbsp;System placement&lt;/font&gt;" style="text;strokeColor=none;fillColor=none;html=1;fontSize=12;fontStyle=2;verticalAlign=middle;align=left;shadow=0;glass=0;comic=0;opacity=30;fontColor=#808080;strokeWidth=1;" vertex="1" parent="2szxPETJ1rB6XnNZ_MYP-1">
          <mxGeometry x="120" y="420" width="520" height="20" as="geometry" />
        </mxCell>
      </root>
    </mxGraphModel>
  </diagram>
</mxfile>
